<svg
      version="1.1"
      id="Layer_1"
      xmlns="http://www.w3.org/2000/svg"
      xmlns:xlink="http://www.w3.org/1999/xlink"
      x="0px"
      y="0px"
      viewBox="0 0 4587.262 5000"
      enable-background="new 0 0 4587.262 5000"
      xml:space="preserve"
    >
      <g>
        <g>
          <path
            fill="#8F4620"
            d="M186.012,852.346C89.538,714.883,77.471,39.127,360.498,67.419
			C422.925-78.225,865.555,20.296,919.88,284.054c34.988,169.866,67.704,458.438-54.578,595.54
			C727.716,1033.851,331.316,1059.393,186.012,852.346z"
          />
          <path
            fill="#7F3419"
            d="M356.759,387.357c83.566-141.69,227.026-139.842,308.76-156.193
			c81.735-16.346,95.376-62.684,95.376-62.684c57.794,78.887,117.655,87.667,149.729,85.355
			c61.978,180.636,77.365,771.037-50.296,914.167c-137.586,154.257-540.196,199.56-685.503-7.483
			c-58.619-83.531-74.743-673.828-23.758-876.137C169.845,395.844,292.857,495.705,356.759,387.357z"
          />
          <g id="wrist_right_pointer_2_">
            <path
              fill="#EC9458"
              d="M1285.051,2478.288c0,0,80.529,57.6,88.012,161.447c2.419,33.565-83.297,1.408-92.862-15.815
				c-20.736-37.34-18.464-138.339-14.205-141.789C1272.135,2477.162,1285.051,2478.288,1285.051,2478.288z"
            />
            <path
              fill="#F47E26"
              d="M3529.259,3211.731l-2221.351-619.968c-1.317,1.11-2.867,1.959-4.62,2.455
				c-31.665,8.804-137.158,35.615-165.575,12.047c-6.289-5.234-9.359-12.658-8.625-20.875c0.757-8.657,5.028-16.14,12.396-21.668
				c31.546-23.797,120.839-7.979,139.351-4.354l2254.856,629.267c6.373,1.781,10.1,8.391,8.32,14.764
				c-1.479,5.294-6.29,8.772-11.536,8.772C3531.424,3212.171,3530.326,3212.024,3529.259,3211.731z M1155.9,2582.844
				c-2.399,1.812-2.84,3.276-3.073,4.798c6.345,8.272,53.682,4.473,107.892-7.515
				C1221.891,2574.104,1170.925,2571.503,1155.9,2582.844z"
            />
            <path
              fill="#FAB276"
              d="M1285.051,2478.288c0,0,61.807,39.001,74.331,53.559c12.523,14.562,22.564,49.645,32.629,68.355
				c10.065,18.709,13.305,25.55,4.291,24.995c-9.014-0.555-27.803-8.229-41.543-35.663c-3.914-7.816-10.394-25.273-19.404-30.265
				c-18.242,2.966-56.057-9.993-67.24-45.303C1252.477,2464.591,1285.051,2478.288,1285.051,2478.288z"
            />
            <path
              fill="#FAB276"
              d="M1295.572,2600.075c0.111,20.213,1.475,35.298-10.394,35.365c-11.869,0.068-11.961-16.322-12.071-36.535
				c-0.111-20.212,5.925-33.351,12.48-33.386C1292.141,2565.479,1295.457,2579.862,1295.572,2600.075z"
            />
            <path
              fill="#FAB276"
              d="M1320.67,2608.526c0.123,22.064,2.173,39.01-10.786,39.081c-12.956,0.071-13.055-17.813-13.178-39.882
				c-0.123-22.064,5.599-39.478,12.738-40.025C1318.588,2567.002,1320.547,2586.457,1320.67,2608.526z"
            />
            <path
              fill="#FAB276"
              d="M1347.651,2614.878c0.131,23.512,1.365,40.782-12.444,40.862c-13.809,0.075-12.96-18.198-13.09-41.71
				s5.016-42.856,12.619-43.439C1344.479,2569.849,1347.521,2591.366,1347.651,2614.878z"
            />
            <path
              fill="#FAB276"
              d="M1374.641,2621.065c2.613,21.018,3.97,35.774-9.731,37.479c-13.701,1.701-12.396-13.975-15.01-34.992
				c-2.613-21.018-1.939-39.699,5.552-41.119C1365.045,2580.612,1372.032,2600.047,1374.641,2621.065z"
            />
          </g>
          <path
            fill="#BE202D"
            d="M892.767,1019.563c44.918,24.94,174.64,628.708,224.551,813.35
			c49.907,184.642,204.608,653.711,204.608,653.711l-76.108,32.423c0,0-173.423-242.012-218.321-376.735
			c-44.902-134.719-59.872-214.59-69.85-264.489c-9.981-49.899-154.69-389.202-239.521-533.922L892.767,1019.563z"
          />
          <path
            fill="#2D313D"
            d="M198.238,4800.975c0,0-7.765,71.959,5.31,124.286c14.086,56.391,78.903,29.567,77.329,64.683
			c-0.623,13.927-124.182,13.733-139.097-2.744c-37.423-41.341-18.714-211.624,16.858-198.525L198.238,4800.975z"
          />
          <path
            fill="#2D313D"
            d="M741.095,4874.644c0,0,34.29,46.762,105.992,74.818c71.702,28.057,115.347,21.771,112.23,40.5
			c-3.117,18.729-271.171,9.327-271.195-12.468c-0.024-21.799,12.444-52.972,9.327-102.851
			C694.333,4824.765,741.095,4874.644,741.095,4874.644z"
          />
          <path
            fill="#323749"
            d="M1025.658,2272.319c11.829,418.885-127.359,723.224-366.575,1279.659
			C314.775,4352.876,205.42,4813.201,205.42,4813.201l-74.85-37.423c0,0-3.668-527.692,103.518-857.034
			c73.347-225.372,195.785-351.652,207.932-404.188c37.495-162.177,76.496-1196.437,76.496-1196.437L1025.658,2272.319z"
          />
          <path
            fill="#3E4359"
            d="M124.475,2285.453c-5.147,585.388,132.316,690.178,289.254,1296.465
			c13.546,89.82-34.921,291.915-19.943,476.556c19.4,239.125,277.742,818.501,277.742,818.501h89.821
			C620.204,3801.013,608.708,3799.05,635.793,2593.896l54.9-19.979v-271.936L124.475,2285.453z"
          />
          <path
            fill="#313547"
            d="M141.709,2221.076h404.942h192.815h274.47c0,0,6.551,15.839,11.722,51.243
			c-55.939,16.382-200.46,49.938-436.425,45.799c-183.265-3.216-354.634-19.681-464.758-32.665
			C131.93,2242.018,141.709,2221.076,141.709,2221.076z"
          />
          <path
            fill="#323749"
            d="M139.282,2319.438c1.027-11.294,2.665-22.402,4.56-33.422l366.277,10.695
			c-17.27,311.834-28.06,696.293-11.559,1135.506H372.613c-111.659-384.491-206.988-547.148-237.78-872.588
			C131.502,2477.146,132.33,2395.851,139.282,2319.438z"
          />
          <path
            fill="#F5EDE2"
            d="M756.871,1734.772c112.23,176.659,220.736,307.729,257.065,486.308
			c-248.722,51.493-543.452,47.432-874.106,0c60.055-166.245,198.422-359.219,300.611-477.77c0.698-0.805,1.642-1.911,2.237-2.593
			c1.221-1.412,2.248-2.594,3.03-3.494c0.868-0.987,2.145-2.451,2.145-2.451c53.389-96.641-128.636-203.062-193.913-390.705
			c-66.527-191.22-37.411-290.995-37.411-290.995c241.068-108.058,382.39-149.503,656.713-37.257l8.328,186.894
			c0,0,55.118,127.791,46.79,186.002C920.027,1446.918,678.935,1631.897,756.871,1734.772z"
          />
          <path
            fill="#DF8243"
            d="M416.714,581.314c0,0,65.444,245.858,9.331,416.192l173.015,29.853l107.047,0.833
			c0,0-42.491-122.874-33.759-265.809C678.748,657.584,416.714,581.314,416.714,581.314z"
          />
          <path
            fill="#E1ACAB"
            d="M453.483,1720.766c19.808-61.245-45.711-127.755-110.854-216.945
			c-69.322-105.044-138.812-237.491-101.146-428.295l187.215-90.903c0,0,129.75,286.926,134.743,476.556
			c2.474,93.969-26.522,374.55-51.009,794.715c-112.373-4.271-230.301-15.252-353.282-32.331
			C229.927,2002.152,451.156,1839.083,453.483,1720.766z"
          />
          <path
            fill="#E1ACAB"
            d="M870.322,1019.563l-11.199,183.147c0,0,65.17,119.297,51.136,186.002
			c-13.099,62.264-77.143,118.103-119.753,182.921c-41.202,58.465-67.439,118.52-33.636,163.14
			c19.515,30.714,38.732,59.73,57.66,88.179c68.49,118.793,170.738,280.232,191.684,399.481
			c-82.016,16.549-169.251,26.807-260.824,31.824c-2.058-242.801-29.933-513.52-34.739-576.013
			c-4.989-64.881-5.008-249.511-5.001-319.372c0.011-69.858,5.001-389.218,5.001-389.218L870.322,1019.563z"
          />
          <path
            fill="#DF8243"
            d="M784.594,983.583c-3.97,35.139-27.66,126.708-166.285,126.697
			c-170.746-0.016-258.56-73.224-295.956-102.189C479.985,945.787,604.033,926.292,784.594,983.583z"
          />
          <path
            fill="#D1652F"
            d="M416.714,581.314c0,0,262.034,76.27,255.634,181.069c-3.874,63.39,2.419,121.95,10.525,168.43
			c-39.034,40.945-116.66,102.491-252.81,143.09c-53.175-22.75-87.854-50.43-107.709-65.813
			c38.657-15.279,75.267-27.898,111.211-37.526C475.401,802.427,416.714,581.314,416.714,581.314z"
          />
          <path
            fill="#FAB276"
            d="M702.645,847.976c24.781-4.945,58.659-53.551,81.092-79.236c47.607-54.511,90.407-119.558,47.175-250.284
			c0,0,74.533-351.807-209.966-358.156c-284.495-6.353-307.099,277.135-227.577,482.247
			C472.891,847.655,679.141,852.663,702.645,847.976z"
          />
          <path
            fill="#EC9458"
            d="M549.625,166.371c-195.139,51.493-173.95,656.733,155.966,680.455c-0.968,0.313-1.999,0.96-2.946,1.15
			c-23.504,4.687-229.754-0.321-309.276-205.429C321.168,456.319,333.877,206.229,549.625,166.371z"
          />
          <g>
            <path
              fill="#EC9458"
              d="M308.644,604.541c1.424,33.212,29.5,58.98,62.712,57.557c33.212-1.428,58.976-29.504,57.553-62.712
				c-1.424-33.212-29.5-58.98-62.712-57.557C332.989,543.256,307.221,571.333,308.644,604.541z"
            />
            <path
              fill="#DF8243"
              d="M367.105,562.973c8.693-0.373,16.461,2.693,23.151,7.225c-3.335-0.94-6.73-1.792-10.382-1.638
				c-18.444,0.793-32.76,16.39-31.967,34.834c0.793,18.444,16.386,32.76,34.834,31.967c2.843-0.119,5.338-1.178,7.947-1.963
				c-5.885,4.12-12.535,7.221-20.24,7.554c-21.533,0.92-39.735-15.783-40.659-37.316S345.572,563.897,367.105,562.973z"
            />
          </g>
          <path
            fill="#DF8243"
            d="M724.091,403.002c0,0-51.707,54.063-37.606,121.68c14.101,67.617,72.883,81.12,72.883,81.12
			s-11.734,49.59-56.41,51.846c-44.68,2.252,32.906-47.337,32.906-47.337s-62.236-34.231-70.516-83.357
			C653.579,457.12,724.091,403.002,724.091,403.002z"
          />
          <path
            fill="#8F4620"
            d="M496.332,198.076c0,0-76.897,31.007-89.42,137.574s18.698,214.082-5.584,220.154
			c-12.535,3.133-43.887-18.805-43.887-18.805s-119.079-332.201,81.496-376.076L496.332,198.076z"
          />
          <path
            fill="#7E371A"
            d="M592.965,392.429c1.265,6.512-24.091,6.579-70.845,18.856c-42.701,11.215-73.827,27.624-75.525,21.208
			c-1.697-6.412,20.443-29.369,70.365-43.118C565.218,376.087,590.526,379.858,592.965,392.429z"
          />
          <path
            fill="#7E371A"
            d="M858.663,430.638c-0.643,4.549-32.117-12.111-64.453-20.633c-31.927-8.411-63.41-15.097-63.045-20.617
			c0.313-4.703,8.296-9.184,23.1-9.133C844.49,390.653,859.611,423.94,858.663,430.638z"
          />
          <g>
            <path
              fill="#92281E"
              d="M595.439,703.763c-0.769,2.185-7.622,1.761-9.811,0.987c-2.185-0.773-3.335-3.172-2.562-5.357
				c0.773-2.189,3.172-3.331,5.358-2.562C590.613,697.605,596.212,701.574,595.439,703.763z"
            />
            <path
              fill="#92281E"
              d="M769.687,693.14c1.459,1.785,7.737-0.94,9.521-2.407c1.789-1.463,2.046-4.1,0.583-5.889
				c-1.463-1.785-4.1-2.042-5.889-0.579C772.118,685.732,768.22,691.351,769.687,693.14z"
            />
            <path
              fill="#996334"
              d="M590.205,701.848l183.615-11.056c0,0-26.946,56.791-85.561,61.502
				C629.642,757.009,590.205,701.848,590.205,701.848z"
            />
            <path
              fill="#92281E"
              d="M590.205,701.848l183.615-11.056c0,0-26.946,56.791-85.561,61.502
				C629.642,757.009,590.205,701.848,590.205,701.848z"
            />
            <path
              fill="#F5EDE2"
              d="M603.985,706.071l148.69-9.176c0,0-26.058,49.383-75.465,48.487
				C627.811,744.49,603.985,706.071,603.985,706.071z"
            />
            <path
              fill="#D4B597"
              d="M603.985,706.071l148.69-9.176l-7.753,11.683c0,0-16.508-8.11-65.285-4.184
				c-48.781,3.922-68.006,11.231-68.006,11.231S606.123,708.915,603.985,706.071z"
            />
          </g>
          <path
            fill="#8F4620"
            d="M760.9,168.481c0,0,13.622,54.467-68.137,81.735c-81.755,27.267-256.121,46.338-305.14,209.807
			c0,0-62.664-171.642,40.89-266.999C489.804,136.582,604.302,89.599,760.9,168.481z"
          />
          <path
            fill="#7F3419"
            d="M328.885,419.51c14.982-11.167,54.812-74.351,80.961-98.251c-0.052,0.266-0.111,0.52-0.163,0.785
			c82.619-75.866,189.484-77.607,255.836-90.879c81.735-16.346,95.38-62.684,95.38-62.684s13.618,54.467-68.137,81.735
			c-74.271,24.769-224.662,43.157-288.385,168.799c2.744,73.221,14.764,132.332-3.05,136.789
			c-12.535,3.133-43.887-18.809-43.887-18.809S299.278,503.62,328.885,419.51z"
          />
          <path
            fill="#CE343A"
            d="M398.758,974.653c0,0,124.757,299.41,139.727,464.069s-104.81,908.171-64.881,1971.043H254.058
			c0,0-182.116-646.779-139.731-1112.783c24.959-274.438,319.016-468.76,314.372-603.768
			c-4.981-144.72-279.431-299.41-212.171-640.141L398.758,974.653z"
          />
          <path
            fill="#CE343A"
            d="M733.097,969.652l159.67,49.911l-11.199,183.147c0,0,65.174,119.301,51.14,186.002
			c-19.971,94.912-158.655,174.751-158.655,294.5c0,79.851,248.472,389.23,258.445,568.859
			c9.969,179.633-19.943,598.803-249.491,1157.693h-59.88c0,0,44.918-878.262,44.91-1127.753
			c-0.012-249.487-29.952-538.887-34.941-603.768c-4.989-64.881-5.009-249.511-5.001-319.372
			C728.108,1289.013,733.097,969.652,733.097,969.652z"
          />
          <path
            fill="#D1652F"
            d="M710.64,964.025l72.368,16.227c-4.815,27.704-20.823,86.422-74.196,111.96
			C709.807,1023.727,710.64,964.025,710.64,964.025z"
          />
          <path
            fill="#D1652F"
            d="M471.463,1089.282c-58.536-18.004-99.437-43.998-126.562-63.973l83.797-40.687
			C428.698,984.622,447.729,1026.796,471.463,1089.282z"
          />
          <path
            fill="#BE202D"
            d="M328.905,1348.901c0,0,154.694,229.552,149.701,344.312c-4.989,114.76-209.557,379.229-249.491,623.739
			c-37.673,230.686,31.252,798.816,110.414,1092.813h-85.47c0,0-182.116-646.779-139.731-1112.783
			c24.959-274.438,319.016-468.76,314.372-603.768c-2.851-82.77-93.794-168.87-158.592-291.106
			C306.186,1369.431,328.905,1348.901,328.905,1348.901z"
          />
          <path
            fill="#F27778"
            d="M398.758,974.653c0,0,139.727,301.904,139.727,464.069c0,0-177.135-228.291-179.641-248.262
			c-2.502-19.971,57.406-66.098,49.911-81.076c-7.495-14.982-127.264-82.337-124.757-94.821
			C286.5,1002.079,398.758,974.653,398.758,974.653z"
          />
          <path
            fill="#F27778"
            d="M825.404,1181.716c4.997-27.434-59.892-52.373-59.88-72.332c0.008-19.963,77.333-92.307,74.846-112.278
			c-2.482-19.971-109.76-34.941-109.76-34.941s-7.495,239.521-2.514,474.046C728.096,1436.211,820.403,1209.154,825.404,1181.716z"
          />
          <g>
            <g>
              <path
                fill="#6E3B32"
                d="M595.745,523.631c0,0-4.909,30.936-61.82,26.795c-48.999-3.565-64.294-30.476-49.891-26.288
					C498.437,528.326,595.745,523.631,595.745,523.631z"
              />
              <path
                fill="#6E3B32"
                d="M601.336,506.761l-119.491-13.082l-27.386-2.752C474.422,455.593,593.132,435.234,601.336,506.761z"
              />
              <path
                fill="#F5EDE2"
                d="M596.054,507.296c-3.01-17.897-13.36-38.787-56.795-37.07c-60.606,2.399-67.348,39.791-56.664,56.406
					C501.439,555.95,605.338,562.505,596.054,507.296z"
              />

              <ellipse
                transform="matrix(0.1884 -0.9821 0.9821 0.1884 -43.4957 962.3504)"
                fill="#6E3B32"
                cx="560.489"
                cy="507.491"
                rx="40.856"
                ry="40.854"
              />
            </g>
            <g>
              <path
                fill="#6E3B32"
                d="M724.115,516.14c0,0-0.242,32.423,56.248,24.369c34.29-4.89,44.74-31.633,30.495-26.934
					S724.115,516.14,724.115,516.14z"
              />
              <path
                fill="#6E3B32"
                d="M722.31,498.358l94.73-15.87l21.026-4.33C816.854,443.562,729.948,430.039,722.31,498.358z"
              />
              <path
                fill="#F5EDE2"
                d="M723.223,499.829c2.931-17.913,16.703-38.125,60.17-37.963c39.929,1.083,43.003,35.96,34.08,53.583
					C800.294,549.371,714.653,552.223,723.223,499.829z"
              />
              <path
                fill="#6E3B32"
                d="M823.707,496.106c0.397,22.132-17.227,40.393-39.358,40.79c-22.132,0.397-40.393-17.223-40.79-39.354
					c-0.397-22.136,17.226-40.397,39.358-40.794C805.048,456.355,823.31,473.974,823.707,496.106z"
              />
            </g>
          </g>
          <g>
            <path
              fill="#F5D5CF"
              d="M2280.96,3272.864c-232.871,67.923-496.487,605.632-732.571,664.652
				c-213.463,53.369-354.158-53.365-354.158-53.365s121.287,223.167,363.862,164.948c371.694-89.206,451.185-494.85,693.759-601.579
				C2390.866,3386.352,2280.96,3272.864,2280.96,3272.864z"
            />
            <path
              fill="#E4B9B9"
              d="M1558.093,4049.1c-150.474,36.115-254.178-36.027-311.306-96.031
				c43.447,25.828,166.963,84.665,336.873,42.19c236.083-59.024,499.7-596.733,732.575-664.652l0.024,0.024
				c12.88,37.177,9.49,84.372-64.405,116.885C2009.278,3554.25,1929.788,3959.894,1558.093,4049.1z"
            />
            <path
              fill="#E4B9B9"
              d="M3962.452,3819.406c0,0-185.022,259.805-210.434,336.539c-25.412,76.73-108.55,580.97-103.597,624.818
				c4.953,43.847,51.255,219.233,51.255,219.233h-79.518l-81.568-219.233c0,0-7.368-668.666-11.084-701.552
				c-3.716-32.883,87.818-328.85,87.818-328.85L3962.452,3819.406z"
            />
            <path
              fill="#E4B9B9"
              d="M2801.11,3485.789c-68.014,33.985-95.603,480.629-163.6,575.839
				c-67.998,95.209-373.959,237.967-414.757,278.777c-40.802,40.813,271.988,367.177,265.19,509.986l-108.812-20.399
				c-101.995-186.981-346.787-496.36-346.787-496.36s112.206-156.379,200.607-285.59
				c88.397-129.211,163.192-435.199,163.192-435.199L2801.11,3485.789z"
            />
            <path
              fill="#F5D5CF"
              d="M2278.85,3272.864c-163.195,81.6-62.914,380.776-226.105,727.566
				c-54.42,115.636-265.195,285.59-265.195,285.59l-10.199,713.976h101.999c0,0,40.798-560.98,81.596-652.779
				c40.798-91.795,448.785-122.394,550.784-295.789c101.995-173.395,164.044-406.73,225.245-437.329
				C2798.172,3583.501,2278.85,3272.864,2278.85,3272.864z"
            />
            <path
              fill="#F5D5CF"
              d="M3873.916,3665.418c0,0-3.875,379.816,19.186,408.281c23.06,28.465,392.046,351.24,415.106,379.74
				c23.06,28.505-91.399,328.981-91.399,328.981l-68.01-33.612c0,0,36.416-171.92,21.041-228.886
				c-15.375-56.97-461.261-265.81-491.994-332.289c-30.733-66.483-161.427-370.287-161.427-370.287L3873.916,3665.418z"
            />
            <path
              fill="#F5D5CF"
              d="M2278.85,3272.864c203.994-112.194,1099.098-3.799,1329.344-91.795
				c184.008-70.322,262.419-583.25,366.044-648.698c91.431-57.759,236.606-13.836,297.451,6.444
				c28.873,9.624,44.581,62.307,78.665,80.172c101.035,52.952,197.915,63.374,223.822,89.813
				c26.906,27.462-29.104,135.528-89.853,157.224c-130.491,46.604-294.349,8.007-323.219,89.817
				c-79.53,225.324-105.865,720.987-166.583,825.068c-71.396,122.398-472.848,222.684-609.526,198.918
				c-234.592-40.802-430.373-245.26-615.955-230.983c-166.82,12.833-583.702,180.188-644.899,159.789
				C2124.141,3908.631,2202.493,3314.864,2278.85,3272.864z"
            />
            <path
              fill="#42464B"
              d="M4016.158,2922.616c-87.81,37.605-230.468-213.376-193.282-290.198
				c9.604-33.688,183.622-128.366,214.844-99.441C4082.732,2574.671,4059.307,2904.136,4016.158,2922.616z"
            />
            <path
              fill="#42464B"
              d="M4586.996,2703.18c-0.801-8.803-74.569-19.249-74.569-19.249c-2.427,31.899,37.875,51.751,47.504,82.425
				c4.39,13.979-2.578,30.682-2.578,30.682S4590.549,2742.17,4586.996,2703.18z"
            />
            <path
              fill="#42464B"
              d="M4227.246,2633.794c12.158,18.852,31.185,28.219,42.491,20.926c11.31-7.297,10.62-28.493-1.539-47.345
				c-12.163-18.852-31.186-28.219-42.496-20.926C4214.394,2593.746,4215.083,2614.942,4227.246,2633.794z"
            />
            <g>
              <path
                fill="#E4B9B9"
                d="M3693.403,4180.718c43.947,58.592,487.846,275.323,503.217,332.289
					c13.305,49.288-15.359,206.377-23.341,247.9l-24.479-12.099c0,0,36.416-171.92,21.041-228.89
					c-15.378-56.966-461.261-265.806-491.994-332.285c-7.035-15.224-19.348-42.967-34.1-76.587
					C3663.704,4139.746,3681.319,4164.605,3693.403,4180.718z"
              />
            </g>
            <g>
              <path
                fill="#E4B9B9"
                d="M1915.714,4325.418c44.922-89.852,459.013-116.75,573.86-281.913
					c39.91-57.394,92.307-134.739,152.187-266.975c-44.91,114.768-90.879,208.34-130.031,274.898
					c-101.999,173.395-509.986,203.993-550.784,295.789c-40.798,91.799-81.596,652.783-81.596,652.783h-33.803
					C1852.621,4907.313,1858.328,4440.198,1915.714,4325.418z"
              />
            </g>
            <path
              fill="#E4B9B9"
              d="M4161.104,2955.84c-66.277,187.774-95.626,563.117-138.7,743.298
				c55.245-277.992,67.712-823.863,79.601-835.731c0,0,279.094,26.518,382.318,2.617
				C4353.832,2912.626,4189.974,2874.03,4161.104,2955.84z"
            />
            <g>
              <ellipse
                fill="#42464B"
                cx="3705.002"
                cy="3366.274"
                rx="45.715"
                ry="55.34"
              />
              <path
                fill="#42464B"
                d="M3575.867,3277.25c13.285,0,24.059,10.771,24.059,24.059c0,13.289-10.775,24.063-24.059,24.063
					c-13.293,0-24.063-10.775-24.063-24.063C3551.803,3288.021,3562.574,3277.25,3575.867,3277.25z"
              />
              <path
                fill="#42464B"
                d="M3433.117,3691.095c21.264,0,38.498,18.674,38.498,41.71s-17.234,41.714-38.498,41.714
					c-21.263,0-38.498-18.678-38.498-41.714S3411.854,3691.095,3433.117,3691.095z"
              />
              <path
                fill="#42464B"
                d="M3226.197,3575.605c23.917,0,43.308,25.134,43.308,56.145c0,31.011-19.392,56.149-43.308,56.149
					c-23.921,0-43.313-25.138-43.313-56.149C3182.885,3600.739,3202.277,3575.605,3226.197,3575.605z"
              />
              <circle fill="#42464B" cx="3064.199" cy="3466.54" r="19.249" />
              <path
                fill="#42464B"
                d="M3184.483,3277.25c31.011,0,56.149,22.981,56.149,51.334c0,28.354-25.138,51.339-56.149,51.339
					c-31.007,0-56.149-22.985-56.149-51.339C3128.334,3300.231,3153.476,3277.25,3184.483,3277.25z"
              />
              <path
                fill="#42464B"
                d="M2773.855,3585.226c16.838,0,30.488,12.928,30.488,28.874s-13.65,28.873-30.488,28.873
					c-16.842,0-30.491-12.928-30.491-28.873S2757.013,3585.226,2773.855,3585.226z"
              />
              <path
                fill="#42464B"
                d="M2698.457,3338.193c33.668,0,60.959,25.852,60.959,57.743c0,31.891-27.291,57.747-60.959,57.747
					c-33.668,0-60.959-25.855-60.959-57.747C2637.498,3364.045,2664.789,3338.193,2698.457,3338.193z"
              />
              <path
                fill="#42464B"
                d="M2528.433,3347.814c-26.573,0-48.118-19.392-48.118-43.308c0-23.92,21.545-43.308,48.118-43.308
					c26.577,0,48.122,19.388,48.122,43.308C2576.555,3328.422,2555.01,3347.814,2528.433,3347.814z"
              />
              <path
                fill="#42464B"
                d="M2523.622,3665.418c27.47,0,49.736,22.98,49.736,51.334s-22.267,51.339-49.736,51.339
					s-49.736-22.985-49.736-51.339S2496.153,3665.418,2523.622,3665.418z"
              />
              <path
                fill="#42464B"
                d="M2260.553,3511.43c20.379,0,36.9,17.956,36.9,40.112c0,22.152-16.521,40.116-36.9,40.116
					s-36.9-17.964-36.9-40.116C2223.654,3529.386,2240.174,3511.43,2260.553,3511.43z"
              />
              <path
                fill="#42464B"
                d="M2300.665,3476.164c-14.169,0-25.657-10.057-25.657-22.461c0-12.408,11.488-22.465,25.657-22.465
					c14.173,0,25.657,10.057,25.657,22.465C2326.323,3466.107,2314.838,3476.164,2300.665,3476.164z"
              />
              <path
                fill="#42464B"
                d="M2335.947,4037.568c23.028,0,41.694,17.952,41.694,40.096c0,22.144-18.666,40.096-41.694,40.096
					c-23.024,0-41.69-17.952-41.69-40.096C2294.257,4055.52,2312.923,4037.568,2335.947,4037.568z"
              />
              <path
                fill="#42464B"
                d="M2074.496,4127.385c-22.144,0-40.096-15.799-40.096-35.286c0-19.483,17.952-35.282,40.096-35.282
					s40.096,15.799,40.096,35.282C2114.592,4111.586,2096.64,4127.385,2074.496,4127.385z"
              />
              <path
                fill="#42464B"
                d="M1872.386,4390.474c-22.144,0-40.096-19.392-40.096-43.312c0-23.917,17.952-43.308,40.096-43.308
					s40.096,19.392,40.096,43.308C1912.482,4371.082,1894.53,4390.474,1872.386,4390.474z"
              />
              <path
                fill="#42464B"
                d="M1838.682,4685.612c0-38.986,26.577-70.587,59.361-70.587c5.73,0,11.159,1.273,16.402,3.073
					c-5.195,45.894-10.001,92.989-14.296,137.844c-0.714,0.032-1.384,0.254-2.106,0.254
					C1865.26,4756.196,1838.682,4724.59,1838.682,4685.612z"
              />
              <path
                fill="#42464B"
                d="M1806.613,4884.506c0,17.94-12.349,32.169-28.1,34.417l0.98-68.617
					C1794.756,4853.027,1806.613,4866.947,1806.613,4884.506z"
              />
              <ellipse
                fill="#42464B"
                cx="3863.015"
                cy="3752.054"
                rx="38.498"
                ry="44.906"
              />
              <path
                fill="#42464B"
                d="M3951.213,3598.046c18.602,0,33.684,17.234,33.684,38.498c0,21.26-15.081,38.498-33.684,38.498
					c-18.606,0-33.688-17.239-33.688-38.498C3917.526,3615.281,3932.607,3598.046,3951.213,3598.046z"
              />
              <path
                fill="#42464B"
                d="M3962.452,3379.923c-10.628,0-19.245-10.057-19.245-22.465c0-12.404,8.618-22.461,19.245-22.461
					c10.632,0,19.249,10.057,19.249,22.461C3981.701,3369.867,3973.083,3379.923,3962.452,3379.923z"
              />
              <path
                fill="#42464B"
                d="M3835.72,3033.446c18.603,0,33.687,16.513,33.687,36.884c0,20.363-15.085,36.88-33.687,36.88
					s-33.684-16.517-33.684-36.88C3802.036,3049.959,3817.117,3033.446,3835.72,3033.446z"
              />
              <path
                fill="#42464B"
                d="M4026.627,3007.769c10.632,0,19.249,10.771,19.249,24.063c0,13.285-8.617,24.059-19.249,24.059
					c-10.628,0-19.249-10.775-19.249-24.059C4007.378,3018.54,4015.999,3007.769,4026.627,3007.769z"
              />
              <path
                fill="#42464B"
                d="M3652.859,3995.878c29.234,0,52.937,29.437,52.937,65.753c0,36.313-23.702,65.753-52.937,65.753
					c-0.698,0-1.348-0.226-2.042-0.258c-12.69-28.814-27.795-63.422-43.269-99.021
					C3616.788,4008.885,3633.53,3995.878,3652.859,3995.878z"
              />
              <path
                fill="#42464B"
                d="M3869.423,4143.438c19.487,0,35.286,17.234,35.286,38.498c0,21.259-15.799,38.494-35.286,38.494
					c-19.483,0-35.282-17.234-35.282-38.494C3834.141,4160.672,3849.94,4143.438,3869.423,4143.438z"
              />
              <path
                fill="#42464B"
                d="M4060.295,4374.421c16.826,0,30.471,19.388,30.471,43.308c0,11.718-3.347,22.279-8.665,30.071
					c-16.001-10.14-33.478-20.808-52.021-31.868C4030.783,4392.896,4043.913,4374.421,4060.295,4374.421z"
              />
              <path
                fill="#42464B"
                d="M4267.235,4473.858c-21.263,0-38.498-18.67-38.498-41.694c0-15.438,8.106-28.37,19.622-35.575
					c25.983,23.718,45.327,41.793,54.464,51.18C4297.112,4463.04,4283.387,4473.858,4267.235,4473.858z"
              />
              <path
                fill="#42464B"
                d="M4209.488,4661.529c0-18.603,18.666-33.684,41.694-33.684c6.904,0,13.134,1.689,18.868,4.088
					c-7.193,21.906-14.502,43.229-21.394,62.871C4226.873,4693.694,4209.488,4679.41,4209.488,4661.529z"
              />
              <path
                fill="#42464B"
                d="M1971.823,3607.671c-14.724,0-28.009-7.939-38.026-20.653c28.187-33.985,56.327-67.649,84.348-99.782
					c6.182,12.369,9.827,27.311,9.827,43.443C2027.972,3573.198,2002.834,3607.671,1971.823,3607.671z"
              />
              <path
                fill="#42464B"
                d="M1750.484,3838.654c-10.374,0-19.304-6.377-25.483-15.858c17.27-16.556,34.604-34.286,51.985-52.96
					c4.219,7.237,7.182,15.771,7.182,25.51C1784.167,3819.263,1769.09,3838.654,1750.484,3838.654z"
              />
              <path
                fill="#42464B"
                d="M1599.692,4002.267c14.201,0,26.692,8.736,34.591,22.037c-24.138,9.605-49.137,18.305-76.19,24.797
					c-0.381,0.091-0.73,0.107-1.11,0.194C1559.918,4022.761,1577.818,4002.267,1599.692,4002.267z"
              />
              <path
                fill="#42464B"
                d="M1428.05,3976.629c-12.139,0-21.834-10.759-24.499-24.924c15.557,0.884,32.066,0.682,49.026-0.143
					C1449.956,3965.795,1440.232,3976.629,1428.05,3976.629z"
              />
              <path
                fill="#42464B"
                d="M1245.213,3951.483c-33.978-36.067-50.982-67.332-50.982-67.332s26.692,20.208,74.379,38.645
					C1265.358,3935.28,1257.026,3945.519,1245.213,3951.483z"
              />
            </g>
            <g>
              <path
                fill="#42464B"
                d="M3565.453,4278.176c25.245,0,45.715,24.777,45.715,55.339c0,30.563-20.47,55.34-45.715,55.34
					c-12.46,0-23.722-6.067-31.971-15.85c-0.372-26.494-0.757-52.473-1.142-77.464
					C3540.672,4284.898,3552.383,4278.176,3565.453,4278.176z"
              />
              <ellipse
                fill="#42464B"
                cx="3615.979"
                cy="4509.16"
                rx="19.249"
                ry="24.059"
              />
              <path
                fill="#42464B"
                d="M3606.354,4771.419c0-25.249,15.081-45.715,33.688-45.715c4.275,0,8.292,1.332,12.055,3.303
					c-3.034,26.387-4.457,44.835-3.676,51.755c0.833,7.356,2.895,18.63,5.643,31.947c-4.299,2.7-8.978,4.425-14.022,4.425
					C3621.435,4817.135,3606.354,4796.668,3606.354,4771.419z"
              />
            </g>
            <g>
              <ellipse
                fill="#42464B"
                cx="2345.572"
                cy="4682.396"
                rx="19.249"
                ry="24.059"
              />
              <path
                fill="#42464B"
                d="M2280.607,4547.658c-19.931,0-36.091-22.624-36.091-50.53c0-22.064,10.247-40.314,24.329-47.202
					c13.487,20.383,28.881,42.634,45.144,66.015C2308.648,4534.496,2295.776,4547.658,2280.607,4547.658z"
              />
              <path
                fill="#42464B"
                d="M2133.837,4388.855c23.92,0,43.312,24.777,43.312,55.34c0,21.347-9.561,39.656-23.417,48.888
					c-20.8-28.116-40.259-54.027-57.263-76.397C2103.952,4400.126,2117.796,4388.855,2133.837,4388.855z"
              />
              <path
                fill="#42464B"
                d="M2415.35,4172.311c14.102,0,25.566,14.621,29.472,34.354c-19.348,11.54-38.788,22.886-57.735,33.775
					c-1.844-6.135-3.018-12.809-3.018-20.01C2384.069,4193.852,2398.076,4172.311,2415.35,4172.311z"
              />
              <path
                fill="#42464B"
                d="M2600.618,3958.169c0-41.195,25.852-74.589,57.743-74.589c12.135,0,23.369,4.878,32.665,13.138
					c-11.512,54.134-23.841,102.114-37.895,135.357C2623.729,4028.61,2600.618,3997.048,2600.618,3958.169z"
              />
            </g>
            <path
              fill="#F47E26"
              d="M3514.63,3192.296c0,0,72.717,424.571,35.302,783.842l-82.338,9.973c0,0,51.16-439.113-37.423-782.184
				L3514.63,3192.296z"
            />
            <path
              fill="#F47E26"
              d="M3514.63,3192.296c0,0,282.294,135.111,529.311,414.562l14.97-89.821
				c0,0-204.561-244.518-461.555-344.308L3514.63,3192.296z"
            />
            <path
              fill="#F47E26"
              d="M3597.356,3172.729l-167.185,31.197C3430.171,3203.927,3546.216,3252.557,3597.356,3172.729z"
            />
            <path
              fill="#F16422"
              d="M3956.999,3411.902c63.782,59.65,101.912,105.135,101.912,105.135l-14.97,89.821
				c-41.103-46.5-83.142-88.631-124.738-127.176C3934.372,3455.924,3946.867,3433.09,3956.999,3411.902z"
            />
            <path
              fill="#F16422"
              d="M3560.572,3765.739c-0.369,70.239-3.466,141.512-10.64,210.398l-82.338,9.973
				c0,0,8.938-77.023,12.865-191.573C3508.737,3785.718,3535.255,3776.006,3560.572,3765.739z"
            />
          </g>
          <path
            fill="#F27778"
            d="M851.525,2331.922l195.928-24.94c0,0,39.922,79.831-41.226,94.79
			C856.082,2429.452,851.525,2331.922,851.525,2331.922z"
          />
          <g>
            <path
              fill="#F27778"
              d="M373.803,2331.922l-259.476-34.941c0,0-44.934,74.851,104.775,104.791
				C368.814,2431.712,373.803,2331.922,373.803,2331.922z"
            />
            <path
              fill="#EC6262"
              d="M229.115,2316.952c-4.029,24.678-6.773,53.408-8.478,85.062c-0.539-0.107-0.991-0.135-1.535-0.242
				c-73.459-14.689-99.937-40.176-107.971-62.343c0.876-14.292,1.923-28.461,3.196-42.448l115.68,15.577
				C229.753,2314.021,229.352,2315.493,229.115,2316.952z"
            />
          </g>
          <g>
            <g id="wrist_left_1_">
              <path
                fill="#EC9458"
                d="M85.33,2538.68c0,0,16.735,26.922,22.87,50.256c5.956,22.64,15.01,67.8,20.01,84.118
					c4.997,16.314,6.773,21.164,5.258,23.456c-2.601,3.946-15.917,7.324-23.797-17.397c-7.88-24.725-16.814-63.925-16.814-63.925
					L85.33,2538.68z"
              />
              <path
                fill="#FAB276"
                d="M28.055,2551.497c0,0-17.659,79.68-17.254,150.07c0.404,70.385,5.853,78.987,12.785,77.999
					c6.928-0.988,7.122-15.664,5.584-37.606c0,0,3.268-36.388,5.54-36.674c2.272-0.281,3.244,38.018,3.133,44.99
					c-0.111,6.972,1.174,55.074,12.158,54.491c10.505-0.559,9.363-34.869,8.676-53.543c0,0,2.602-46.346,5.85-46.298
					c3.252,0.048,3.323,41.623,3.577,48.578c0.258,6.96,0.765,58.266,10.973,58.009c10.207-0.258,13.086-12.479,11.465-56.176
					c0,0-3.315-52.663-0.1-52.294c9.121-0.793,2.915,89.547,18.849,88.964c8.054-0.297,8.213-20.696,7.237-47.21
					c-0.995-27.097-0.96-35.71-3.093-54.698c-8.316-74.006-24.888-143.796-24.888-143.796S55.771,2521.751,28.055,2551.497z"
              />
              <polygon
                fill="#FAB276"
                points="88.546,2546.302 98.222,2453.554 24.506,2461.652 27.476,2560.229 				"
              />
            </g>
            <path
              fill="#CE343A"
              d="M221.524,1053.072c0,0-110.707,24.702-161.292,714.702c0,0-32.383,138.439-49.042,250.649
				c-22.382,150.787-4.271,495.409-4.271,495.409l104.18,9.292c0,0,75.053-351.137,93.552-477.453
				c9.474-64.695,29.949-241.587,29.949-241.587s27.244-210.676,141.675-439.534
				C370.583,1293.886,221.524,1053.072,221.524,1053.072z"
            />
            <path
              fill="#BE202D"
              d="M11.19,2018.423c16.659-112.214,49.042-250.653,49.042-250.653
				c33.485-456.74,89.202-605.525,127.977-673.65c-31.281,104.386-66.491,280.91-95.285,673.65c0,0-32.379,138.439-49.039,250.653
				c-22.385,150.783,9.776,500.457,9.776,500.457l-46.742-5.052C6.919,2513.827-11.192,2169.206,11.19,2018.423z"
            />
          </g>
        </g>
      </g>
    </svg>